<?xml version="1.0" standalone="no"?>
<!DOCTYPE svg PUBLIC "-//W3C//DTD SVG 20010904//EN"
 "http://www.w3.org/TR/2001/REC-SVG-20010904/DTD/svg10.dtd">
<svg version="1.0" xmlns="http://www.w3.org/2000/svg"
 width="864.000000pt" height="864.000000pt" viewBox="0 0 864.000000 864.000000"
 preserveAspectRatio="xMidYMid meet">
<metadata>
Created by potrace 1.14, written by Peter Selinger 2001-2017
</metadata>
<g transform="translate(0.000000,864.000000) scale(0.100000,-0.100000)"
fill="#000000" stroke="none">
<path d="M6325 8425 c-416 -272 -597 -416 -860 -686 -216 -222 -379 -432 -518
-667 -33 -56 -64 -99 -68 -95 -4 5 -102 334 -218 733 -117 399 -215 733 -219
743 -6 14 -48 -27 -212 -204 -113 -122 -247 -274 -298 -338 -228 -283 -432
-631 -548 -931 -22 -55 -41 -100 -44 -100 -3 0 -205 318 -449 706 -244 388
-448 707 -452 709 -7 5 -109 -185 -242 -450 -185 -370 -306 -763 -363 -1180
-22 -163 -26 -597 -6 -755 98 -790 470 -1445 1038 -1826 442 -296 969 -384
1498 -249 l104 26 113 -25 c176 -39 292 -49 494 -43 181 6 274 18 459 62 l100
24 120 -35 c208 -60 339 -77 606 -78 l235 -1 3 2413 c2 1927 0 2412 -10 2411
-7 0 -125 -74 -263 -164z m-205 -2455 l0 -1710 -27 0 c-16 0 -74 11 -130 25
-497 120 -821 463 -934 987 -26 121 -36 411 -20 559 75 649 448 1296 1040
1802 30 26 59 47 63 47 4 0 8 -769 8 -1710z m-1711 890 l184 -629 -22 -103
c-71 -337 -69 -725 5 -1028 71 -286 204 -549 383 -755 l61 -70 -58 -3 c-31 -2
-97 2 -146 8 -641 86 -1093 619 -1167 1378 -14 142 -6 407 16 552 48 308 169
654 329 938 67 120 212 342 223 342 5 0 91 -283 192 -630z m-1570 -92 l342
-542 -12 -135 c-14 -162 -7 -450 16 -600 48 -330 167 -651 332 -901 78 -117
115 -163 209 -262 35 -37 64 -69 64 -71 0 -13 -190 22 -295 54 -215 66 -405
181 -584 354 -171 166 -286 327 -395 556 -237 494 -289 1106 -146 1709 27 112
112 380 121 380 3 0 160 -244 348 -542z"/>
<path d="M5400 2216 c-235 -50 -381 -195 -437 -435 -27 -113 -26 -600 0 -714
41 -175 152 -323 289 -387 152 -70 403 -81 568 -23 185 64 303 182 354 352 19
65 21 122 4 139 -17 17 -182 16 -196 0 -5 -7 -17 -40 -27 -73 -49 -174 -156
-253 -361 -263 -116 -5 -190 11 -266 60 -136 86 -176 237 -165 628 8 269 31
355 122 438 83 78 186 109 323 99 187 -13 297 -93 343 -251 28 -94 43 -106
131 -106 93 0 108 9 108 64 0 106 -75 255 -168 336 -55 47 -164 104 -242 126
-77 21 -298 27 -380 10z"/>
<path d="M2471 2192 c-25 -20 -581 -1457 -581 -1501 0 -15 5 -32 12 -39 18
-18 157 -16 178 3 10 9 44 84 76 168 31 84 62 158 67 165 14 18 720 18 734 0
6 -7 36 -80 67 -163 32 -82 65 -158 74 -167 12 -14 31 -18 93 -18 68 0 80 3
93 21 8 12 13 26 11 33 -2 6 -128 340 -281 741 -199 526 -283 736 -301 753
-22 20 -34 22 -122 22 -79 0 -103 -3 -120 -18z m268 -599 c79 -208 146 -384
148 -390 4 -10 -59 -13 -297 -13 -180 0 -300 4 -298 9 53 148 295 771 299 771
3 0 70 -170 148 -377z"/>
<path d="M3558 2200 c-17 -10 -18 -58 -18 -774 0 -643 2 -765 14 -775 9 -8 45
-11 97 -9 78 3 84 5 96 28 9 18 13 101 13 313 l0 287 194 0 194 0 163 -287
c90 -159 176 -300 191 -316 24 -25 33 -27 105 -27 83 0 103 9 103 44 0 11 -76
152 -170 314 -93 161 -170 297 -170 301 0 3 30 20 66 35 76 33 160 109 193
174 48 94 64 237 40 354 -25 120 -112 230 -224 282 -117 56 -143 59 -520 63
-237 2 -356 0 -367 -7z m733 -203 c111 -42 163 -123 164 -252 0 -93 -15 -143
-58 -191 -68 -78 -140 -94 -422 -94 l-215 0 0 281 0 281 243 -4 c197 -4 250
-7 288 -21z"/>
<path d="M6375 2196 c-26 -19 -34 -126 -11 -161 l16 -25 228 -2 227 -3 3 -669
c1 -474 5 -673 13 -683 8 -9 37 -13 95 -13 74 0 84 2 98 22 14 20 16 102 16
685 l0 663 224 0 c265 0 256 -4 256 100 0 60 -3 71 -22 84 -20 14 -91 16 -573
16 -450 0 -555 -3 -570 -14z"/>
</g>
</svg>
