<svg width="36" height="51" viewBox="0 0 41 54" fill="none" xmlns="http://www.w3.org/2000/svg">
<path d="M5.56 50C5.48533 50 5.42 49.972 5.364 49.916C5.308 49.86 5.28 49.7947 5.28 49.72L5.308 49.566L8.78 40.508C8.85467 40.3027 9.004 40.2 9.228 40.2H10.124C10.348 40.2 10.4973 40.3027 10.572 40.508L14.044 49.566L14.072 49.72C14.072 49.7947 14.0393 49.86 13.974 49.916C13.918 49.972 13.8527 50 13.778 50H13.12C13.0267 50 12.9473 49.9767 12.882 49.93C12.826 49.874 12.7887 49.818 12.77 49.762L11.986 47.746H7.352L6.582 49.762C6.50733 49.9207 6.39067 50 6.232 50H5.56ZM7.758 46.584H11.594L9.676 41.558L7.758 46.584ZM15.8916 50C15.7982 50 15.7236 49.972 15.6676 49.916C15.6116 49.8507 15.5836 49.7713 15.5836 49.678V40.536C15.5836 40.4333 15.6116 40.354 15.6676 40.298C15.7236 40.2327 15.7982 40.2 15.8916 40.2H19.3076C20.3716 40.2 21.2022 40.452 21.7996 40.956C22.4062 41.4507 22.7096 42.174 22.7096 43.126C22.7096 43.8353 22.5322 44.4187 22.1776 44.876C21.8229 45.3333 21.3282 45.6507 20.6936 45.828L22.8496 49.566C22.8776 49.622 22.8916 49.6733 22.8916 49.72C22.8916 49.7947 22.8636 49.86 22.8076 49.916C22.7516 49.972 22.6862 50 22.6116 50H21.9956C21.8556 50 21.7436 49.9673 21.6596 49.902C21.5849 49.8367 21.5149 49.7433 21.4496 49.622L19.3916 46.038H16.8996V49.678C16.8996 49.7713 16.8669 49.8507 16.8016 49.916C16.7362 49.972 16.6569 50 16.5636 50H15.8916ZM19.2516 44.89C20.6609 44.89 21.3656 44.2973 21.3656 43.112C21.3656 41.9267 20.6609 41.334 19.2516 41.334H16.8996V44.89H19.2516ZM28.23 50.14C26.9887 50.14 26.0414 49.804 25.388 49.132C24.744 48.4507 24.3987 47.522 24.352 46.346C24.3427 46.094 24.338 45.6833 24.338 45.114C24.338 44.5353 24.3427 44.1153 24.352 43.854C24.3987 42.678 24.744 41.754 25.388 41.082C26.0414 40.4007 26.9887 40.06 28.23 40.06C29.0607 40.06 29.7654 40.2093 30.344 40.508C30.9227 40.7973 31.3567 41.18 31.646 41.656C31.9447 42.132 32.108 42.6407 32.136 43.182C32.136 43.266 32.1034 43.336 32.038 43.392C31.982 43.4387 31.912 43.462 31.828 43.462H31.128C31.0347 43.462 30.96 43.4387 30.904 43.392C30.848 43.3453 30.806 43.266 30.778 43.154C30.6194 42.4353 30.33 41.9313 29.91 41.642C29.4994 41.3527 28.9394 41.208 28.23 41.208C26.606 41.208 25.7614 42.1133 25.696 43.924C25.6867 44.176 25.682 44.5633 25.682 45.086C25.682 45.6087 25.6867 46.0053 25.696 46.276C25.7614 48.0773 26.606 48.978 28.23 48.978C28.93 48.978 29.49 48.8333 29.91 48.544C30.33 48.2547 30.6194 47.7553 30.778 47.046C30.806 46.934 30.848 46.8547 30.904 46.808C30.96 46.7613 31.0347 46.738 31.128 46.738H31.828C31.912 46.738 31.982 46.766 32.038 46.822C32.1034 46.8687 32.136 46.934 32.136 47.018C32.108 47.5593 31.9447 48.068 31.646 48.544C31.3567 49.02 30.9227 49.4073 30.344 49.706C29.7654 49.9953 29.0607 50.14 28.23 50.14ZM36.5046 50C36.4113 50 36.3319 49.972 36.2666 49.916C36.2106 49.8507 36.1826 49.7713 36.1826 49.678V41.404H33.4806C33.3873 41.404 33.3079 41.376 33.2426 41.32C33.1866 41.2547 33.1586 41.1753 33.1586 41.082V40.536C33.1586 40.4333 33.1866 40.354 33.2426 40.298C33.3079 40.2327 33.3873 40.2 33.4806 40.2H40.2006C40.3033 40.2 40.3826 40.2327 40.4386 40.298C40.4946 40.354 40.5226 40.4333 40.5226 40.536V41.082C40.5226 41.1753 40.4899 41.2547 40.4246 41.32C40.3686 41.376 40.2939 41.404 40.2006 41.404H37.5126V49.678C37.5126 49.7713 37.4799 49.8507 37.4146 49.916C37.3493 49.972 37.2699 50 37.1766 50H36.5046Z" fill="#91795C"/>
<path d="M8.84314 5.07666L23.0144 27.5555C11.8872 33.4389 1.31953 19.4449 8.84314 5.07666Z" fill="white" stroke="#91795C" stroke-width="3"/>
<path d="M20.5316 3.99316L27.6914 28.464C15.5781 31.4365 9.47526 15.7986 20.5316 3.99316Z" fill="white" stroke="#91795C" stroke-width="3"/>
<path d="M33.2245 3V29C20.6416 29 19.1612 12.0133 33.2245 3Z" fill="white" stroke="#91795C" stroke-width="3"/>
</svg>
